<?xml version="1.0" standalone="no"?>
<!DOCTYPE svg PUBLIC "-//W3C//DTD SVG 20010904//EN"
 "http://www.w3.org/TR/2001/REC-SVG-20010904/DTD/svg10.dtd">
<svg version="1.0" xmlns="http://www.w3.org/2000/svg"
 width="1024.000000pt" height="1024.000000pt" viewBox="0 0 1024.000000 1024.000000"
 preserveAspectRatio="xMidYMid meet">

<g transform="translate(0.000000,1024.000000) scale(0.100000,-0.100000)"
fill="#000000" stroke="none">
<path d="M7057 6181 c-42 -43 -77 -86 -77 -96 0 -17 157 -180 652 -680 l268
-270 -460 -460 c-253 -253 -460 -465 -460 -470 0 -6 40 -51 90 -100 l90 -89
555 554 c306 305 554 560 553 567 -6 22 -1100 1123 -1117 1123 -10 0 -52 -35
-94 -79z"/>
<path d="M2512 5697 c-304 -304 -552 -557 -552 -563 0 -12 1099 -1114 1111
-1114 10 0 169 172 169 183 0 5 -183 197 -407 426 -225 229 -428 438 -452 464
l-45 47 457 459 c251 253 457 464 457 470 0 14 -160 181 -174 180 -6 0 -260
-249 -564 -552z"/>
<path d="M3580 5151 l0 -1091 368 0 c405 1 462 6 597 59 105 40 254 138 329
214 180 187 266 448 266 812 0 383 -95 652 -302 857 -68 68 -94 86 -201 137
-196 95 -190 94 -654 99 l-403 3 0 -1090z m743 724 c225 -47 390 -212 444
-442 28 -121 26 -446 -5 -566 -37 -149 -112 -276 -200 -340 -135 -99 -236
-127 -464 -127 l-157 0 2 745 2 745 155 0 c96 0 181 -6 223 -15z"/>
<path d="M5340 5151 l0 -1091 404 0 c499 0 551 8 711 102 155 92 269 248 296
402 27 157 -2 375 -64 476 -33 54 -104 126 -159 162 -28 17 -45 34 -39 36 27
9 130 154 162 228 33 76 34 83 34 209 -1 111 -4 138 -23 186 -51 127 -150 227
-297 300 -148 72 -152 73 -612 77 l-413 3 0 -1090z m875 714 c86 -43 110 -88
110 -210 0 -81 -3 -95 -30 -144 -35 -63 -92 -104 -166 -120 -28 -6 -134 -11
-237 -11 l-187 0 0 261 0 261 225 -4 225 -3 60 -30z m22 -849 c113 -36 176
-141 177 -296 1 -67 -4 -95 -20 -131 -41 -88 -132 -153 -252 -178 -29 -6 -139
-11 -245 -11 l-192 0 3 321 3 321 237 -4 c187 -4 248 -8 289 -22z"/>
</g>
</svg>
